<svg xmlns="http://www.w3.org/2000/svg" xmlns:xlink="http://www.w3.org/1999/xlink" width="180" height="157" viewBox="0 0 180 157">
    <defs>
        <path id="a" d="M18.438.747V35.55H.828V.747h17.61z"/>
    </defs>
    <g fill="none" fill-rule="evenodd">
        <path fill="#F285A2" d="M35.375 75.684c-7.286 2.333-15.646 3.412-22.17-.236C7.23 72.106 2.627 66.43.893 60.264c-1.186-4.22-.844-8.314.964-11.528 4.993-8.867 11.91-11.748 21.145-8.8 9.234 2.945 11.25 9.335 10.06 14.332-1.438 6.016-7.336 10.343-12.89 9.451-3.338-.537-5.553-1.883-6.585-4-.629-1.29-1.06-3.405.455-6.153a3.545 3.545 0 1 1 6.418 2.976c.221.06.497.121.838.175 1.886.302 4.3-1.723 4.864-4.094.776-3.254-2.46-5.022-5.314-5.93-5.999-1.914-9.472-.415-12.81 5.521-.879 1.561-.992 3.738-.318 6.131 1.216 4.326 4.644 8.508 8.946 10.913 8.883 4.971 25.687-3.606 31.412-7.33a3.545 3.545 0 0 1 3.866 5.944c-.54.351-7.77 4.996-16.569 7.812"/>
        <path fill="#130733" fill-rule="nonzero" d="M35.01 74.542c3.798-1.215 7.583-2.863 11.19-4.75a76.633 76.633 0 0 0 3.553-1.978c.684-.406 1.203-.73 1.537-.947a2.346 2.346 0 0 0-2.558-3.934c-3.854 2.507-9.512 5.315-14.8 7.06-7.305 2.41-13.484 2.756-17.85.312-4.574-2.557-8.211-6.994-9.516-11.635-.754-2.677-.624-5.176.427-7.043 3.61-6.42 7.664-8.168 14.22-6.077 4.366 1.391 6.976 3.741 6.116 7.351-.699 2.93-3.65 5.412-6.218 5a9.42 9.42 0 0 1-.96-.2l-1.287-.344.477-1.244a2.346 2.346 0 0 0-4.249-1.968c-1.102 1.999-1.107 3.654-.427 5.049.84 1.723 2.713 2.861 5.696 3.341 4.911.789 10.237-3.117 11.534-8.545 1.29-5.42-1.663-10.49-9.257-12.912-8.684-2.771-15.017-.135-19.736 8.246C1.26 52.246.944 56.013 2.047 59.94c1.647 5.853 6.04 11.273 11.743 14.462 5.452 3.048 12.77 2.846 21.22.14zM24.996 52.345c.466-1.954-1.202-3.456-4.512-4.51-5.44-1.735-8.333-.488-11.401 4.967-.706 1.255-.803 3.11-.209 5.219 1.128 4.01 4.347 7.937 8.378 10.19 6.633 3.713 20.082-.724 30.173-7.288a4.745 4.745 0 0 1 5.172 7.955c-.36.234-.907.575-1.62.998a79.022 79.022 0 0 1-3.665 2.04c-3.72 1.948-7.63 3.648-11.571 4.91-9.021 2.889-16.97 3.108-23.121-.331C6.371 73 1.561 67.068-.261 60.589-1.53 56.075-1.16 51.654.812 48.148c5.268-9.355 12.769-12.478 22.555-9.354 8.776 2.799 12.445 9.097 10.86 15.753-1.578 6.606-8.049 11.351-14.246 10.356-3.69-.594-6.248-2.148-7.472-4.658-1.013-2.079-1.006-4.558.483-7.258a4.747 4.747 0 0 1 8.894 2.55c1.183-.143 2.725-1.575 3.11-3.192z"/>
        <path fill="#EE507F" d="M75.165 147.882c-13.454 0-14.973-4.383-15.376-8.872-.22-2.45.195-5.257.634-8.23.643-4.356 1.308-8.862-.228-11.772-.346-.657-.332-1.388.04-2.005.73-1.212 2.443-4.05 40.535-4.05 24.223 0 51.029 1.157 51.297 1.168l1.224.053-.08 1.223c-.006.097-.633 9.882-.198 20.28.339 8.11-5.458 9.486-10.547 9.78-1.353.077-2.887.166-4.384.166h-.001c-2.418 0-9.781 0-10.357-6.13-.07-.735-.121-1.386-.17-1.994-.056-.708-.108-1.357-.177-2.009-2.721.556-9.272 1.738-15.694 1.738-1.12 0-2.197-.037-3.201-.11-7.647-.553-9.804-1.094-14.531-2.28-1.62-.406-3.575-.897-6.18-1.493-.022.941-.055 2.507-.103 5.105-.007.377 0 .756.007 1.133.035 1.862.074 3.973-1.557 5.635-1.783 1.817-5.264 2.664-10.953 2.664"/>
        <path fill="#130733" d="M100.766 111.755c-38.766 0-40.513 2.898-41.557 4.63-.595.984-.622 2.144-.074 3.182 1.353 2.565.716 6.874.102 11.04-.43 2.91-.874 5.92-.642 8.51.537 5.982 3.56 9.964 16.57 9.964 6.115 0 9.757-.931 11.809-3.022 1.984-2.023 1.937-4.504 1.9-6.498-.007-.363-.014-.727-.007-1.088.028-1.55.05-2.73.07-3.627 1.9.447 3.422.828 4.723 1.154 4.795 1.203 6.984 1.752 14.735 2.315a45.71 45.71 0 0 0 3.288.113c5.646 0 11.386-.898 14.622-1.505l.054.667c.049.614.1 1.272.17 2.014.45 4.79 4.338 7.218 11.553 7.218 1.53 0 3.084-.089 4.454-.168 2.994-.172 12.106-.698 11.675-11.029-.432-10.326.19-20.052.197-20.15l.159-2.445-2.448-.106c-.268-.013-27.102-1.169-51.353-1.169m0 2.398c24.479 0 51.249 1.165 51.249 1.165s-.643 9.822-.2 20.408c.272 6.516-3.753 8.208-9.418 8.534-1.372.08-2.854.165-4.315.165-4.476 0-8.766-.804-9.165-5.044-.203-2.16-.257-3.599-.513-5.337 0 0-8.551 1.986-16.721 1.986-1.05 0-2.096-.034-3.114-.107-10.632-.77-10.432-1.496-21.947-4.066l-.002-.032c-.008 0-.04.57-.151 6.604-.074 4.002 1.38 8.255-11.304 8.255-12.683 0-13.82-3.752-14.182-7.781-.536-5.976 3.073-15.147.272-20.455-1.79-3.392 17.974-4.295 39.51-4.295"/>
        <path fill="#F285A2" d="M59.817 155.556c-12.141 0-14.884-3.395-15.375-8.87-.221-2.45.194-5.258.633-8.23.643-4.358 1.308-8.864-.228-11.774-.794-1.505-2.487-3.05-4.447-4.84-7.14-6.518-17.93-16.369-14.915-45.505C28.447 47.702 57.71 37.5 84.107 37.5c2.474 0 4.84.1 7.035.295 6.904.617 24.12 7.425 28.33 9.123 4.59-6.757 9.709-10.932 13.256-13.27 4.418-2.914 8.996-4.654 12.247-4.654 1.527 0 2.709.372 3.514 1.105 2.605 2.37 1.655 11.795.143 23.87-.397 3.174-.74 5.915-.74 7.098 0 3.593 11.465 13.075 15.695 14.41.762.24 1.72.263 2.735.285 5.28.12 9.655 1.328 9.717 14.974.028 6.044-1.68 14.21-4.893 17.438-1.025 1.03-2.163 1.551-3.385 1.551l-.267-.003c-4.446 0-8.172 3.785-8.21 3.824-7.362 7.26-18.187 9.825-21.475 10.462-.143 2.694-.501 10.813-.144 19.342.339 8.11-5.458 9.487-10.546 9.781-1.354.078-2.888.167-4.385.167-2.42 0-9.782 0-10.358-6.132-.07-.734-.121-1.385-.17-1.994-.056-.707-.108-1.356-.177-2.008-2.721.556-9.273 1.74-15.695 1.74a43.83 43.83 0 0 1-3.2-.112c-7.647-.553-9.803-1.094-14.53-2.28a288.709 288.709 0 0 0-6.181-1.493c-.022.941-.055 2.507-.103 5.106-.007.376 0 .755.007 1.133.035 1.861.074 3.972-1.557 5.634-1.783 1.817-5.264 2.664-10.953 2.664"/>
        <path fill="#130733" d="M144.974 27.796c-6.701 0-17.833 6.173-25.942 17.653-5.378-2.146-21.14-8.253-27.784-8.846a80.449 80.449 0 0 0-7.142-.302c-7.768 0-22.807.985-36.254 7.582-13.932 6.835-22.08 18.015-23.56 32.33-3.077 29.739 8.426 40.24 15.299 46.515 1.878 1.714 3.499 3.195 4.195 4.513 1.354 2.564.717 6.872.103 11.04-.43 2.91-.874 5.92-.642 8.51.537 5.982 3.56 9.964 16.57 9.964 6.115 0 9.757-.933 11.808-3.022 1.985-2.023 1.938-4.504 1.9-6.499a30.319 30.319 0 0 1-.007-1.087l.07-3.626c1.903.447 3.423.829 4.724 1.155 4.796 1.203 6.984 1.752 14.735 2.313 1.033.075 2.139.113 3.287.113 5.647 0 11.387-.899 14.623-1.506l.054.668c.048.614.1 1.272.17 2.013.45 4.79 4.338 7.22 11.553 7.22 1.53 0 3.083-.09 4.453-.17 2.995-.172 12.107-.696 11.676-11.028-.321-7.66-.061-14.99.097-18.305 4.179-.91 14.167-3.692 21.147-10.573l.02-.022.023-.023c.028-.028 3.423-3.455 7.344-3.455l.147.002.12.001c1.067 0 2.668-.33 4.234-1.904 3.89-3.907 5.266-13.078 5.243-18.288-.067-14.695-5.416-16.044-10.89-16.168-.926-.021-1.801-.04-2.401-.23-1.546-.487-5.33-2.909-8.986-6.115-4.792-4.203-5.87-6.632-5.87-7.152 0-1.108.355-3.946.73-6.949 1.9-15.163 2.274-22.358-.525-24.906-1.033-.94-2.487-1.416-4.322-1.416m0 2.396c1.198 0 2.13.267 2.708.793 3.273 2.98-.99 25.614-.99 30.081 0 4.471 12.324 14.225 16.533 15.555 4.337 1.368 11.537-3.153 11.615 14.12.03 6.921-2.437 17.785-7.078 17.785h-.067l-.201-.001c-5.033 0-9.071 4.188-9.071 4.188-8.386 8.269-21.757 10.28-21.757 10.28s-.642 9.82-.2 20.406c.273 6.518-3.752 8.21-9.417 8.536-1.372.078-2.853.163-4.315.163-4.476 0-8.766-.802-9.165-5.044-.202-2.16-.257-3.597-.513-5.335 0 0-8.551 1.984-16.722 1.984-1.05 0-2.095-.032-3.113-.106-10.632-.77-10.433-1.496-21.947-4.067 0 0-.001-.03-.003-.03-.007 0-.038.567-.15 6.602-.074 4.004 1.38 8.255-11.304 8.255-12.683 0-13.821-3.751-14.182-7.78-.536-5.976 3.072-15.148.272-20.454-3.825-7.25-23.08-12.459-19.23-49.663C29.862 45.678 63.63 38.7 84.106 38.7c2.542 0 4.88.107 6.929.29 7.633.682 28.893 9.407 28.893 9.407 8.087-12.393 19.457-18.204 25.046-18.204"/>
        <path fill="#EE507F" d="M169.633 109.106c-4.479 0-7.606-6.663-7.606-16.203 0-9.539 3.127-16.202 7.606-16.202 4.48 0 7.606 6.663 7.606 16.202 0 9.54-3.127 16.203-7.606 16.203"/>
        <g transform="translate(160 74.755)">
            <mask id="b" fill="#fff">
                <use xlink:href="#a"/>
            </mask>
            <path fill="#130733" d="M9.633.747C4.366.747.828 7.74.828 18.147c0 10.41 3.538 17.403 8.805 17.403 5.267 0 8.805-6.993 8.805-17.402C18.438 7.74 14.9.747 9.633.747m0 2.398c3.54 0 6.407 6.01 6.407 15.003s-2.868 15.004-6.407 15.004-6.407-6.011-6.407-15.004c0-8.992 2.868-15.003 6.407-15.003" mask="url(#b)"/>
        </g>
        <path fill="#F285A2" d="M64.01 50.383c-1.75 0-3.282-.944-3.725-2.296a2.603 2.603 0 0 1 .26-2.188c.519-.859 1.487-1.464 2.657-1.662 3.557-.6 7.3-1.02 11.125-1.245 2.283-.133 4.642-.2 7.012-.2 4.421 0 9.006.234 13.628.697 1.187.12 2.215.656 2.822 1.471.465.626.643 1.374.5 2.106-.292 1.513-1.888 2.614-3.794 2.614-.168 0-.339-.009-.509-.026a127.45 127.45 0 0 0-12.65-.65c-2.18 0-4.344.063-6.434.186a93.463 93.463 0 0 0-10.08 1.124 4.75 4.75 0 0 1-.812.07"/>
        <path fill="#130733" d="M81.34 41.592c-2.396 0-4.778.068-7.084.204-3.87.227-7.657.65-11.254 1.26-1.515.255-2.785 1.065-3.483 2.224a3.78 3.78 0 0 0-.373 3.181c.612 1.866 2.567 3.12 4.864 3.12a6.06 6.06 0 0 0 1.014-.085 92.233 92.233 0 0 1 9.947-1.109c2.067-.122 4.21-.185 6.365-.185 4.05 0 8.268.217 12.536.645.197.02.411.032.623.032 2.48 0 4.57-1.51 4.972-3.588.207-1.062-.047-2.146-.716-3.046-.808-1.086-2.143-1.796-3.665-1.948a138.317 138.317 0 0 0-13.747-.705m0 2.397c4.386 0 8.906.232 13.508.694 1.454.145 2.47 1.11 2.265 2.153-.183.951-1.32 1.645-2.617 1.645-.127 0-.255-.006-.384-.02a128.62 128.62 0 0 0-12.775-.656c-2.209 0-4.379.062-6.505.187-3.522.207-6.956.59-10.208 1.14a3.66 3.66 0 0 1-.613.052c-1.205 0-2.298-.593-2.586-1.47-.337-1.026.55-2.054 1.978-2.295 3.51-.594 7.21-1.008 10.995-1.229 2.271-.133 4.587-.2 6.942-.2"/>
        <path fill="#F285A2" d="M64.01 50.383c-1.75 0-3.282-.944-3.725-2.296a2.603 2.603 0 0 1 .26-2.188c.519-.859 1.487-1.464 2.657-1.662 3.557-.6 7.3-1.02 11.125-1.245 2.283-.133 4.642-.2 7.012-.2 4.421 0 9.006.234 13.628.697 1.187.12 2.215.656 2.822 1.471.465.626.643 1.374.5 2.106-.292 1.513-1.888 2.614-3.794 2.614-.168 0-.339-.009-.509-.026a127.45 127.45 0 0 0-12.65-.65c-2.18 0-4.344.063-6.434.186a93.463 93.463 0 0 0-10.08 1.124 4.75 4.75 0 0 1-.812.07"/>
        <path fill="#130733" d="M81.34 41.592c-2.396 0-4.778.068-7.084.204-3.87.227-7.657.65-11.254 1.26-1.515.255-2.785 1.065-3.483 2.224a3.78 3.78 0 0 0-.373 3.181c.612 1.866 2.567 3.12 4.864 3.12a6.06 6.06 0 0 0 1.014-.085 92.233 92.233 0 0 1 9.947-1.109c2.067-.122 4.21-.185 6.365-.185 4.05 0 8.268.217 12.536.645.197.02.411.032.623.032 2.48 0 4.57-1.51 4.972-3.588.207-1.062-.047-2.146-.716-3.046-.808-1.086-2.143-1.796-3.665-1.948a138.317 138.317 0 0 0-13.747-.705m0 2.397c4.386 0 8.906.232 13.508.694 1.454.145 2.47 1.11 2.265 2.153-.183.951-1.32 1.645-2.617 1.645-.127 0-.255-.006-.384-.02a128.62 128.62 0 0 0-12.775-.656c-2.209 0-4.379.062-6.505.187-3.522.207-6.956.59-10.208 1.14a3.66 3.66 0 0 1-.613.052c-1.205 0-2.298-.593-2.586-1.47-.337-1.026.55-2.054 1.978-2.295 3.51-.594 7.21-1.008 10.995-1.229 2.271-.133 4.587-.2 6.942-.2M166.303 91.404c0-1.873.71-3.39 1.589-3.39.876 0 1.587 1.517 1.587 3.39 0 1.873-.71 3.39-1.588 3.39-.879 0-1.588-1.517-1.588-3.39M171.065 90.525c0-1.873.71-3.39 1.59-3.39.876 0 1.586 1.517 1.586 3.39 0 1.872-.71 3.389-1.587 3.389-.879 0-1.589-1.517-1.589-3.389"/>
        <path fill="#72CDDE" d="M78.21 45.841c-2.79 0-5.534-.52-8.153-1.55A22.168 22.168 0 0 1 57.76 32.436a22.167 22.167 0 0 1-.313-17.077C60.826 6.757 68.98 1.198 78.222 1.198c2.79 0 5.535.522 8.155 1.551a22.172 22.172 0 0 1 12.296 11.854 22.167 22.167 0 0 1 .313 17.077c-3.38 8.602-11.534 14.161-20.775 14.161"/>
        <path fill="#130733" d="M78.222 0C68.485 0 59.89 5.858 56.33 14.923a23.366 23.366 0 0 0 .33 17.994 23.362 23.362 0 0 0 12.958 12.49 23.394 23.394 0 0 0 8.593 1.635c9.737 0 18.33-5.857 21.89-14.922a23.358 23.358 0 0 0-.33-17.994C97.264 8.367 92.66 3.932 86.816 1.635A23.393 23.393 0 0 0 78.222 0m0 2.397c2.568 0 5.18.472 7.716 1.468C96.793 8.13 102.135 20.388 97.87 31.242c-3.268 8.32-11.231 13.4-19.66 13.4a21.07 21.07 0 0 1-7.716-1.467C59.64 38.91 54.298 26.653 58.562 15.799c3.268-8.32 11.23-13.401 19.66-13.401"/>
        <path fill="#72CDDE" d="M78.212 41.297a17.71 17.71 0 0 1-6.495-1.235 17.662 17.662 0 0 1-9.793-9.441 17.66 17.66 0 0 1-.249-13.6c2.692-6.85 9.186-11.277 16.545-11.277 2.223 0 4.41.416 6.495 1.236a17.657 17.657 0 0 1 9.793 9.44 17.659 17.659 0 0 1 .25 13.6c-2.692 6.85-9.187 11.277-16.546 11.277"/>
        <path fill="#130733" d="M78.221 4.545c-7.856 0-14.789 4.726-17.662 12.038a18.845 18.845 0 0 0 .267 14.518A18.85 18.85 0 0 0 71.28 41.178a18.892 18.892 0 0 0 6.932 1.317c7.856 0 14.788-4.724 17.661-12.037a18.845 18.845 0 0 0-.266-14.517A18.847 18.847 0 0 0 85.153 5.863a18.872 18.872 0 0 0-6.932-1.318m0 2.397c2.016 0 4.065.372 6.056 1.153 8.519 3.346 12.712 12.966 9.364 21.485-2.565 6.53-8.815 10.517-15.429 10.517-2.016 0-4.066-.37-6.056-1.153-8.519-3.346-12.712-12.965-9.365-21.485 2.565-6.528 8.815-10.517 15.43-10.517"/>
        <path fill="#FEFEFE" d="M72.585 31.543l.856-2.178c-1.65-1.292-2.26-2.814-2.328-2.996l-.552-1.472 4.217-2.365.803 1.85s.582 1.209 1.728 1.659c.189.074.384.115.549.115.323 0 .38-.146.41-.224-.066-.196-.918-.99-1.376-1.414-1.55-1.445-3.888-3.624-2.625-6.84.755-1.922 2.636-3.115 4.909-3.115h.08l.902-2.294 4.403 1.73-.85 2.164c1.292 1.013 1.822 2.133 1.922 2.364l.56 1.318-3.858 2.927-.982-1.965c-.001 0-.49-.882-1.363-1.226a2.036 2.036 0 0 0-.737-.16c-.204 0-.295.052-.308.065-.006.255.99 1.174 1.415 1.567 1.519 1.4 3.813 3.517 2.58 6.653-.805 2.054-2.713 3.329-4.978 3.329l-.093-.001-.88 2.239-4.404-1.73z"/>
        <path fill="#130733" d="M79.82 11.49l-.439 1.117-.2.509-.134.34-.202.514c-2.376.112-4.326 1.427-5.136 3.489-.748 1.903-.366 3.483.392 4.765l-.196.11-.528.297-.35.196-1.628.912-.273.153-.409.229-.898.503.36.964.165.439.11.293.097.26c.07.182.648 1.64 2.173 2.97l-.145.368-.133.339-.2.508-.438 1.117 1.116.438.51.2.338.133 1.591.625.34.134.51.2 1.114.438.44-1.116.2-.508.132-.34.18-.46c2.377-.114 4.36-1.51 5.22-3.7.777-1.977.303-3.593-.533-4.882l.307-.233.525-.398.35-.266 1.468-1.113.226-.171.341-.26.745-.564-.366-.86-.167-.392-.112-.262-.098-.23c-.1-.237-.596-1.291-1.758-2.316l.14-.355.133-.34.2-.508.438-1.116-1.116-.44-.509-.2-.339-.132-1.592-.625-.338-.133-.509-.201-1.116-.438zm.676 1.556l.51.2.338.133 1.592.626.34.132.508.2-.2.509-.133.339-.467 1.188c1.473 1.006 2.034 2.243 2.098 2.39l.098.232.112.262.167.392-.34.258-.227.172-1.47 1.113-.35.266-.524.398-.294-.59-.197-.392-.169-.336c-.005-.011-.58-1.083-1.679-1.515a2.658 2.658 0 0 0-.956-.201c-.427 0-.748.149-.86.437-.207.524.343 1.11 1.561 2.234 1.482 1.367 3.511 3.24 2.43 5.994-.723 1.838-2.435 2.947-4.422 2.947-.163 0-.328-.006-.494-.021l-.485 1.234-.133.34-.2.509-.509-.2-.339-.133-1.592-.625-.339-.134-.509-.2.2-.51.133-.338.472-1.201c-1.826-1.261-2.465-2.922-2.494-2.997l-.097-.26-.109-.292-.165-.44.41-.228.273-.153 1.627-.912.352-.197.528-.296.241.555.16.37.137.317c.008.015.67 1.43 2.06 1.976.24.095.51.158.768.158.412 0 .794-.161.968-.606.187-.475-.683-1.286-1.526-2.071-1.515-1.412-3.59-3.345-2.476-6.182.67-1.704 2.357-2.735 4.35-2.735.16 0 .32.007.483.019l.506-1.288.133-.34.2-.507z"/>
        <path fill="#F285A2" d="M125.46 152.02c.54-.027 1.074-.057 1.589-.086 5.665-.326 9.69-2.018 9.418-8.534-.443-10.587.2-20.407.2-20.407L125.46 152.02zM71.12 146.102c.1-5.3.135-6.379.147-6.563l-11.45 14.818c12.685 0 11.23-4.252 11.304-8.255M154.723 75.292l12.684.52"/>
        <path fill="#130733" fill-rule="nonzero" d="M154.674 76.49l12.684.52a1.199 1.199 0 1 0 .099-2.396l-12.684-.52a1.199 1.199 0 1 0-.099 2.396z"/>
        <path fill="#130733" d="M134.132 80.912c-.396-2.533 1.004-4.854 3.131-5.187 2.124-.333 4.166 1.45 4.562 3.984.397 2.534-1.003 4.855-3.127 5.187-2.128.333-4.17-1.45-4.566-3.984"/>
        <path fill="#E5E5EC" d="M139.89 78.125a1.113 1.113 0 1 1-2.198.345 1.113 1.113 0 0 1 2.199-.345"/>
        <path fill="#F285A2" d="M102.029 54.575l5.264-8.466"/>
        <path stroke="#130733" stroke-linecap="round" stroke-width="2.398" d="M102.029 54.575l5.264-8.466"/>
        <path fill="#130733" d="M149.002 70.885c-.427-2.244.75-4.35 2.635-4.71 1.88-.357 3.75 1.17 4.178 3.413.427 2.244-.751 4.352-2.631 4.71-1.885.358-3.755-1.169-4.182-3.413"/>
        <path fill="#E5E5EC" d="M154.046 68.235a.992.992 0 1 1-1.95.37.992.992 0 0 1 1.95-.37"/>
        <path fill="#F285A2" d="M100.642 72.247c-1.89 1.447-4.1 2.097-6.032-.103 0 0-3.837-35.558 6.395-37.7 10.232-2.14 20.464 21.123 20.464 21.123s-1.47 2.51-3.41 3.169"/>
        <path fill="#130733" fill-rule="nonzero" d="M95.694 70.896c-.082-.906-.164-1.93-.24-3.053-.332-4.874-.456-9.882-.252-14.547.455-10.386 2.503-16.936 6.048-17.678 3.979-.832 8.638 2.981 13.326 9.985 1.53 2.284 2.947 4.738 4.214 7.192a75.728 75.728 0 0 1 1.312 2.665 9.201 9.201 0 0 1-.775.947c-.562.597-1.132 1.017-1.653 1.193a1.199 1.199 0 0 0 .77 2.271c.952-.323 1.822-.963 2.629-1.82a10.89 10.89 0 0 0 1.43-1.879l.31-.528-.247-.56-.113-.253a78.115 78.115 0 0 0-1.532-3.137c-1.306-2.529-2.768-5.058-4.352-7.425-5.204-7.774-10.5-12.109-15.81-10.998-5.167 1.081-7.447 8.372-7.953 19.92-.209 4.766-.082 9.86.255 14.815a142.02 142.02 0 0 0 .326 3.961l.03.305.042.378.25.285c2.207 2.512 4.965 2.33 7.662.264a1.199 1.199 0 1 0-1.458-1.904c-1.68 1.287-2.977 1.452-4.152.32l-.067-.719z"/>
        <path fill="#EE507F" d="M100.273 64.26s-2.175-20.159 3.625-21.374C109.7 41.672 115.5 56.14 115.5 56.14s-11.414 10.137-15.227 8.12"/>
        <path fill="#130733" fill-rule="nonzero" d="M106.824 61.53a44.995 44.995 0 0 0 2.877-1.906 70.03 70.03 0 0 0 4.751-3.728c-.19-.443-.412-.936-.662-1.467a47.868 47.868 0 0 0-2.4-4.498c-2.611-4.284-5.203-6.633-7.313-6.192-1.88.394-3.023 4.048-3.277 9.843-.115 2.637-.045 5.47.143 8.226a78.97 78.97 0 0 0 .144 1.816c1.124.203 3.156-.535 5.737-2.093zm-7.481 2.162a80.708 80.708 0 0 1-.139-1.766c-.192-2.816-.264-5.71-.145-8.42.29-6.64 1.602-10.832 4.66-11.473 3.14-.657 6.175 2.095 9.159 6.99a49.575 49.575 0 0 1 2.49 4.664 51.31 51.31 0 0 1 .941 2.13l.228.568-.458.407a69.995 69.995 0 0 1-1.572 1.332 71.744 71.744 0 0 1-3.793 2.918 46.707 46.707 0 0 1-2.989 1.98c-3.458 2.09-6.105 2.936-7.86 2.008l-.409-.217-.05-.46c-.012-.12-.035-.345-.063-.661z"/>
        <path fill="#EE507F" d="M130.316 50.342c2.709-9.258 14.078-17.408 14.938-14.849.97 2.89.125 24.667-1.488 23.226-5.35-4.78-13.983-6.557-13.45-8.377"/>
        <path fill="#130733" fill-rule="nonzero" d="M131.478 50.726c.369.275.949.597 1.832 1.023.533.257 2.727 1.267 2.842 1.32a56.61 56.61 0 0 1 3.342 1.674c1.59.871 2.969 1.768 4.165 2.74.1-.382.2-.892.295-1.511.273-1.771.502-4.359.654-7.287.296-5.7.232-11.36-.146-12.797-.248 0-.656.11-1.169.34-1.17.522-2.693 1.56-4.241 2.915-3.654 3.194-6.668 7.357-7.864 11.325.056.067.153.155.29.258zm-1.999-.629c1.276-4.36 4.504-8.839 8.425-12.267 1.67-1.46 3.332-2.592 4.678-3.194 1.688-.753 3.054-.74 3.498.58.51 1.519.588 7.408.269 13.56-.155 2.982-.389 5.623-.672 7.462-.16 1.027-.332 1.804-.53 2.325-.366.966-1.09 1.586-1.962.806-1.237-1.105-2.734-2.114-4.529-3.098a54.972 54.972 0 0 0-3.241-1.622c-.102-.048-2.313-1.065-2.863-1.33-2.38-1.148-3.294-1.831-3.116-3.026a1.46 1.46 0 0 1 .043-.196z"/>
        <path fill="#130733" fill-rule="nonzero" d="M117.782 47.724c10.765 3.624 18.76 7.494 24.393 11.346 1.95 1.333 3.463 2.562 4.592 3.657.386.374.696.702.935.98.133.156.209.253.233.287a1.199 1.199 0 0 0 1.957-1.385c-.228-.322-.696-.868-1.456-1.604-1.228-1.19-2.847-2.506-4.907-3.915-5.824-3.982-14.016-7.947-24.982-11.639a1.199 1.199 0 1 0-.765 2.273z"/>
    </g>
</svg>
