<svg xmlns="http://www.w3.org/2000/svg" width="77" height="74" viewBox="0 0 77 74">
    <g fill="none" fill-rule="evenodd">
        <g opacity=".35">
            <path fill="#B9B7C9" d="M30.858 64.929C14.215 64.929.643 51.357.643 34.714S14.215 4.5 30.858 4.5s30.214 13.571 30.214 30.214c.071 16.643-13.5 30.215-30.214 30.215z"/>
            <path fill="#000" d="M30.858 5c16.428 0 29.714 13.286 29.714 29.714 0 16.429-13.286 29.715-29.714 29.715-16.429 0-29.715-13.286-29.715-29.715C1.143 18.286 14.501 5 30.858 5zm0-1.071C13.929 3.929.143 17.714.143 34.643c0 16.928 13.786 30.714 30.715 30.714 16.928 0 30.714-13.786 30.714-30.714 0-16.929-13.714-30.714-30.714-30.714z"/>
            <path fill="#9B96BF" d="M49.358 20.071A3.367 3.367 0 0 0 48.929 19c-.214-1-.428-2-.5-2.5v-.071c-.071-2-.286-4.572-.5-6.215-5.071-4.071-11.5-6.428-18.5-6.428-2.357 0-4.643.285-6.857.785-.143.215-.286.429-.429.572-.285.357-.571.714-.928 1.071-.5.5-.857 1.286-1.214 2.215-.786 1.214-1.072 3.071-1.072 5.071-.071.429-.071.857-.143 1.357-.071.5-.071.857-.143 1.286-.071.714-1.142 2.786-1.857 4.071-.143.286-.071.715.143.929.143.143.429.286.929.286v.214l-.072.214a.992.992 0 0 0 .143.786l.143.143c.286 1.214.786 2.428 1.286 3.143.285.357.571.571.857.714.143.571.286 1.071.5 1.643-.072-.429-.214-.643-.214-.643l23.357-1.072s-8.429 4-8.215 4.786c.286.857.715 1.714.715 1.714-.286.286-1.929.072-1.929.358 0 .285 1.286 1.285 1.286 1.285-1.929.286.428 1.929.428 1.929s-5.857 1.5-5.428 1.714c.643.5 1.428.929 2.286 1h.428c.786 0 1.643-.286 2.357-.643.715-.214 1.5-.5 2.215-.857.857.072 6.357-4.5 6.428-4.786 0-.071.072-.071.072-.071.714-.786 1.714-2.929 2.285-5.571.286-.143.572-.358.786-.643.929-1.143 1.571-3.643 1.714-5.429v-.286c.143-.428.072-.714.072-1z"/>
            <g>
                <path fill="#EAE6F2" d="M30.858 64.929c-4.643 0-9.143-1.072-13.286-3.072a.482.482 0 0 1-.286-.428v-.358a.558.558 0 0 1-.285.286c-.072 0-.143.072-.215.072-.071 0-.143 0-.214-.072-3.5-1.857-6.5-4.357-9.071-7.428-.072-.143-.143-.286-.072-.429 1.857-7.5 2.786-8.929 3.357-9.429 1.072-.928 2.572-2 5.643-3.071.072-.071.072-.071.143-.071s.571-.143 1.286-.358c.428-.142.857-.214 1.285-.357l4.429-1.285 1.214-.643c.072-.072.143-.072.215-.072h.071l.357.072c.143 0 .357-.072.572-.072.142 0 .357 0 .5.072v-1.929c-2.429-1.571-4.5-3.5-5.072-4.071-.571-.572-1.786-3.429-2.5-6-1.214-.429-1.928-2.786-2.143-3.857a.154.154 0 0 1-.143-.143c-.142-.143-.142-.357-.142-.5l.071-.286c0-.143-.071-.357-.071-.5-.572 0-.858-.143-.929-.214-.214-.143-.214-.429-.143-.643.714-1.214 1.786-3.429 1.857-4.143.072-.357.072-.786.143-1.286 0-.428.072-.857.143-1.357 0-2.286.357-3.928 1-5 .357-.928.714-1.643 1.143-2.143.357-.428.643-.785.928-1.071C22.572 2.929 23.501 1.786 25.786 1c.572-.214 1.215-.286 1.857-.286 1.143 0 2.143.286 2.929.572.429.143.857.285 1.143.285h.714c.857 0 1.643-.142 2.429-.285a10.2 10.2 0 0 1 2.071-.215c.643 0 1.214.143 1.714.358 1.786.785 6.5 4.5 7.215 7.428.285 1.143.714 4.786.714 7.5.071.5.214 1.357.5 2.572.214.357.357.642.429 1 .071.214.071.571.071.857v.071c-.071 1.643-.857 5.572-2.5 6-.571 2.714-1.571 4.857-2.286 5.643-.428.429-2.428 2.429-4.928 3.929-.072.571-.143 1.714-.215 2.285l.072.072c.357.071.786.143 1.143.214l1-.071H40l3.571 1c6.714 1.642 8.857 3.571 9.571 4.142.429.429 1.215 1.572 2.786 7.215.072.143 0 .285-.071.428a29.089 29.089 0 0 1-8.715 8.5c-.071.072-.214.072-.285.072-.072 0-.143 0-.215-.072-.142-.071-.285-.214-.285-.357l-.072-.214-.071.786c0 .142-.072.357-.286.428-4.428 2.643-9.714 4.072-15.071 4.072z"/>
                <path fill="#000" d="M27.786 1c1.715 0 3.143.786 4 .857h.715c1.714 0 3.142-.5 4.5-.5.5 0 1 .072 1.5.286 1.857.857 6.285 4.5 6.928 7.071.214 1.072.714 4.643.714 7.357v.072c.072.571.286 1.714.572 2.714.214.286.286.572.357.929.071.214.071.5.071.785v.072c-.071 2.071-1.071 5.571-2.285 5.571h-.143c-.572 2.929-1.643 5.143-2.214 5.786-.5.5-2.572 2.5-5 4-.072.5-.215 2.857-.215 2.857l.429.214c.428.072.857.143 1.214.215l1-.072 3.572 1c6 1.5 8.357 3.143 9.428 4.072.714.643 1.714 3.571 2.572 6.928-2.286 3.357-5.215 6.215-8.572 8.357l-.786-3.857-.285 4.643c-4.429 2.572-9.5 4.072-15 4.072-4.715 0-9.143-1.072-13.072-3.072l-.214-4.143-.786 3.643C13.358 59 10.358 56.5 7.858 53.5c1.071-4.214 2.285-8.357 3.143-9.143.857-.714 2.285-1.857 5.642-3v-.071c.072 0 .572-.143 1.286-.357.429-.143.857-.215 1.286-.358l4.5-1.285L25 38.57l.428.072s.214-.072.572-.072c.285 0 .642.072 1 .286V35.93c-2.5-1.572-4.715-3.643-5.215-4.143-.5-.429-1.714-3.286-2.428-6.143-.929 0-1.786-2.072-2.143-3.929-.143.072-.214.072-.214.072l.142-.429c-.071-.357-.071-.714-.142-1.071h-.5c-.5 0-.643-.143-.643-.143s1.785-3.214 1.928-4.357c.072-.357.072-.786.143-1.215 0-.428.072-.928.143-1.357 0-1.857.214-3.714 1-4.785.286-.858.643-1.5 1.071-2.072 2.786-3 3.572-4.214 5.929-5.071A5.363 5.363 0 0 1 27.786 1zm0-1c-.714 0-1.357.143-2 .357-2.357.786-3.357 2-5.357 4.286-.286.357-.571.714-.928 1.071-.5.572-.929 1.286-1.286 2.215-.786 1.142-1.072 2.857-1.072 5.214-.071.428-.071.857-.142 1.286-.072.428-.072.857-.143 1.214-.072.571-1 2.5-1.786 4-.214.428-.143 1 .214 1.286.143.142.429.285.786.285v.215a.998.998 0 0 0 .214 1.071l.072.071c.285 1.215.928 3.215 2.143 3.929.642 2.5 1.857 5.357 2.571 6 .571.571 2.571 2.429 4.929 4v1.071c-.215 0-.429 0-.572.072l-.286-.072h-.142c-.143 0-.358.072-.5.143l-1.215.643c-.5.143-2.571.786-4.357 1.286-.428.143-.857.214-1.286.357-.714.214-1.214.357-1.285.357a.542.542 0 0 0-.286.143c-3.071 1.143-4.571 2.214-5.643 3.143-.643.571-1.643 2.214-3.5 9.714-.071.286 0 .643.214.929 2.572 3.143 5.643 5.643 9.215 7.571.143.072.285.143.5.143H17c.071.143.214.286.428.429a30.454 30.454 0 0 0 13.5 3.142 30.448 30.448 0 0 0 15.5-4.214c.214-.143.357-.286.429-.571H47c.214 0 .357-.072.571-.143 3.571-2.286 6.5-5.214 8.857-8.643.143-.214.214-.571.143-.857-1.5-5.643-2.357-6.929-2.929-7.429-.714-.643-3-2.571-9.785-4.285l-3.5-1c-.072 0-.215-.072-.286-.072h-.071l-.929.072c-.214-.072-.429-.072-.643-.143.072-.5.072-1.143.143-1.572 2.357-1.5 4.286-3.357 4.786-3.928.714-.786 1.714-2.929 2.357-5.572 1.714-.857 2.428-4.571 2.571-6.214v-.429c0-.357 0-.642-.071-.857-.214-.428-.357-.785-.5-1.143-.357-1.571-.429-2.214-.5-2.428-.072-2.786-.5-6.357-.786-7.5-.714-3.143-5.571-6.929-7.5-7.786C38.358.571 37.715.5 37.001.5c-.715 0-1.429.143-2.143.214C34.072.857 33.286 1 32.5 1h-.643c-.215 0-.643-.143-1.072-.286-.785-.357-1.785-.714-3-.714z"/>
            </g>
        </g>
        <path fill="#5C53A1" d="M54.572 72.429c-.143-.072-4.286-1.358-8.643-4-5.857-3.572-9.357-7.929-10.143-12.643v-.072l-.285-24.143H36.286c1.572 0 9.643-.285 18.143-5.928l.357-.214.286.285c.071.072 6 5.072 18.357 5.929h.5l-.143 23.214c-.071.5-1.285 11.929-18.928 17.572l-.143.071-.143-.071z"/>
        <path fill="#140534" d="M54.786 26.143s5.929 5.143 18.715 6l-.143 22.714s-1.072 11.5-18.572 17.072c0 0-16.643-5.143-18.428-16.215l-.286-23.571h.286c1.5 0 9.785-.286 18.428-6zm.072-1.357l-.715.428c-8.357 5.572-16.285 5.857-17.857 5.857h-.214L34.929 31v1.143l.286 23.571v.143c.786 4.857 4.357 9.357 10.357 13 4.429 2.714 8.643 4 8.786 4.072l.357.071.357-.071c18-5.715 19.286-17.5 19.286-18v-.143L74.5 32.07v-1l-1-.071c-12.286-.857-18-5.714-18.072-5.786l-.571-.428z"/>
        <path fill="#8C85BF" d="M54.786 26.143v45.786c17.5-5.572 18.572-17.072 18.572-17.072l.143-22.714c-12.786-.857-18.715-6-18.715-6z"/>
        <path fill="#F6F6FA" stroke="#140534" stroke-width="1.426" d="M64.5 44.214H45.93c-.858 0-1.572 1-1.572 1.857v12.215c0 .857.643 1.785 1.5 2.071l1.857.572c.857.285 2.214.5 3.071.5h9.072c.857 0 2.214-.215 3.071-.5l1.857-.572c.857-.286 1.5-1.214 1.5-2.071V46.07c.072-.857-.928-1.857-1.785-1.857z"/>
        <path fill="#C2BEDD" stroke="#140534" stroke-width="1.426" d="M61.643 44.214V42c0-4.571-2.071-7.214-6.285-7.214-4.215 0-6.286 2.643-6.286 7.214v2.214h3.143v-2.857c0-2.286 1.286-3.428 3.143-3.428 1.857 0 3.143 1.214 3.143 3.428v2.857h3.142z"/>
        <path fill="#140534" d="M56.643 52.5l.429 4.786h-3.357l.428-4.786c-.5-.357-.785-1-.785-1.643 0-1.143.928-2.071 2.071-2.071 1.143 0 2.072.928 2.072 2.071 0 .714-.358 1.286-.858 1.643z"/>
    </g>
</svg>
